# xmcd CD database file
#
# Track frame offsets:
#	150
#	18900
#	36975
#	55725
#
# Disc length: 978 seconds
#
# Revision: 0
# Processed by: cddbd v1.5.1PL0 Copyright (c) Steve Scherf et al.
# Submitted via: CDex 1.51
#
DISCID=2903d004
DTITLE=KYOKO - 風のレジェンズ
DYEAR=2004
DGENRE=Anime
TTITLE0=風のレジェンズ
TTITLE1=空色の指先
TTITLE2=風のレジェンズ（オリジナルカラオケ）
TTITLE3=空色の指先（オリジナルカラオケ）
EXTD=YEAR: 2004
EXTT0=
EXTT1=
EXTT2=
EXTT3=
PLAYORDER=
